<svg width="19" height="19" viewBox="0 0 19 19" fill="none" xmlns="http://www.w3.org/2000/svg">
<path d="M11.033 2.18888L11.0333 7.93717L16.7814 7.93732C17.6366 7.93749 18.3293 8.63023 18.3295 9.48538C18.3295 9.91257 18.1563 10.2995 17.8764 10.5794C17.596 10.8598 17.2093 11.0331 16.7821 11.0328L11.033 11.0329L11.033 16.7818C11.033 17.209 10.8598 17.5959 10.5797 17.876C10.2996 18.1561 9.91304 18.3293 9.48552 18.3293C8.63056 18.3293 7.93779 17.6365 7.93746 16.7812L7.93722 11.0331L2.18888 11.033C1.3339 11.033 0.640992 10.3401 0.640993 9.48508C0.64124 8.6305 1.33374 7.938 2.18848 7.93759L7.93731 7.93734L7.93734 2.18872C7.93784 1.3339 8.63042 0.64132 9.48491 0.641155C10.3401 0.640991 11.033 1.3339 11.033 2.18888Z" fill="#827B7B"/>
</svg>
