<svg width="30" height="30" viewBox="0 0 30 30" fill="none" xmlns="http://www.w3.org/2000/svg">
<g clip-path="url(#clip0)">
<path d="M9.72656 19.3948H25.6057C25.9989 19.3948 26.3438 19.1348 26.4503 18.7571L29.9661 6.45218C30.0417 6.18691 29.9899 5.90195 29.8235 5.68153C29.6569 5.46181 29.3978 5.33203 29.1213 5.33203H7.69753L7.06924 2.50488C6.97998 2.10228 6.62292 1.81641 6.21094 1.81641H0.878906C0.393219 1.81641 0 2.20963 0 2.69531C0 3.18123 0.393219 3.57422 0.878906 3.57422H5.50552L8.67943 17.8564C7.74559 18.2625 7.08984 19.192 7.08984 20.2737C7.08984 21.7275 8.27271 22.9104 9.72656 22.9104H25.6057C26.0916 22.9104 26.4846 22.5174 26.4846 22.0315C26.4846 21.5458 26.0916 21.1526 25.6057 21.1526H9.72656C9.24248 21.1526 8.84766 20.7587 8.84766 20.2737C8.84766 19.7887 9.24248 19.3948 9.72656 19.3948Z" fill="#AE4536"/>
<path d="M8.84766 25.5471C8.84766 27.0012 10.0305 28.1838 11.4846 28.1838C12.9385 28.1838 14.1213 27.0012 14.1213 25.5471C14.1213 24.0932 12.9385 22.9104 11.4846 22.9104C10.0305 22.9104 8.84766 24.0932 8.84766 25.5471Z" fill="#AE4536"/>
<path d="M21.2112 25.5471C21.2112 27.0012 22.394 28.1838 23.8479 28.1838C25.302 28.1838 26.4846 27.0012 26.4846 25.5471C26.4846 24.0932 25.302 22.9104 23.8479 22.9104C22.394 22.9104 21.2112 24.0932 21.2112 25.5471Z" fill="#AE4536"/>
</g>
<defs>
<clipPath id="clip0">
<rect width="30" height="30" fill="white"/>
</clipPath>
</defs>
</svg>
