<svg width="88" height="88" viewBox="0 0 88 88" fill="none" xmlns="http://www.w3.org/2000/svg">
<g clip-path="url(#clip0)">
<path d="M85.4219 31.7971H74.0783V20.6253C74.0783 19.3005 73.0654 18.1792 71.7361 18.0591C71.5337 18.0405 2.54957 18.0338 2.26581 18.068C0.985524 18.2246 0.0225176 19.3019 0.00292409 20.586C0.00172098 20.6626 -0.00670081 70.13 0.0120334 70.3465C0.111032 71.5088 0.977961 72.4492 2.11043 72.6584C2.47876 72.7265 1.89645 72.7029 13.9226 72.7029V83.8747C13.9226 85.2985 15.0769 86.4528 16.5007 86.4528H85.4219C86.8457 86.4528 88 85.2985 88 83.8747V34.3752C88 32.9514 86.8457 31.7971 85.4219 31.7971ZM47.2775 45.3754L68.9219 26.3283V64.4221L47.2775 45.3754ZM64.668 23.2034L37.1212 47.4446L9.43671 23.2034H64.668ZM5.15706 26.3095L26.9305 45.3747L5.15706 64.4405V26.3095ZM30.8439 48.8015L35.427 52.8146C36.3998 53.6662 37.8551 53.6671 38.8286 52.8105L43.3752 48.8096L64.6678 67.5469H9.43653L30.8439 48.8015ZM82.8438 81.2966H19.0788V72.7029C75.1011 72.7029 71.6035 72.726 71.9685 72.6584C73.1096 72.4475 73.9667 71.5027 74.0671 70.3462C74.0844 70.1444 74.0783 72.3552 74.0783 36.9533H82.8438V81.2966Z" fill="#E8D2D2"/>
<path d="M61.8755 12.2035H80.2659L79.2347 13.5785C78.3803 14.7175 78.6113 16.3335 79.7503 17.1879C80.8845 18.0385 82.5016 17.8164 83.3596 16.6722L87.4846 11.1723C88.1466 10.2909 88.1791 9.05911 87.5248 8.13718C87.4243 7.99556 86.3543 6.57176 83.3596 2.57862C82.5051 1.43928 80.8895 1.20862 79.7503 2.063C78.6113 2.91739 78.3803 4.53334 79.2347 5.67234L80.2659 7.04733H61.8755C60.4517 7.04733 59.2974 8.20163 59.2974 9.62543C59.2974 11.0492 60.4517 12.2035 61.8755 12.2035Z" fill="#E8D2D2"/>
</g>
<defs>
<clipPath id="clip0">
<rect width="88" height="88" fill="white"/>
</clipPath>
</defs>
</svg>
