<svg width="24" height="24" viewBox="0 0 24 24" fill="none" xmlns="http://www.w3.org/2000/svg">
<path d="M23.1887 4.72787L15.9168 12.0005L23.1887 19.2727C24.2703 20.3548 24.2703 22.1076 23.1887 23.1897C22.6482 23.7301 21.9397 24.0006 21.2314 24.0006C20.5221 24.0006 19.8134 23.7305 19.2734 23.1897L11.9999 15.9166L4.72703 23.1896C4.18665 23.7301 3.47802 24.0005 2.76918 24.0005C2.06054 24.0005 1.35239 23.7305 0.811532 23.1896C-0.270122 22.108 -0.270122 20.3552 0.811532 19.2727L8.08319 12.0004L0.811119 4.72787C-0.270536 3.64622 -0.270536 1.893 0.811119 0.811351C1.89257 -0.269474 3.64475 -0.269474 4.72661 0.811351L11.9999 8.08396L19.2726 0.811351C20.3546 -0.269474 22.107 -0.269474 23.1883 0.811351C24.2703 1.893 24.2703 3.64622 23.1887 4.72787Z" fill="#827B7B"/>
</svg>
