<svg width="81" height="77" viewBox="0 0 81 77" fill="none" xmlns="http://www.w3.org/2000/svg">
<path d="M40.409 72.9902C28.8715 72.9902 18.182 67.1717 11.8294 57.4416C11.4124 56.7966 11.5792 55.9274 12.2325 55.4927C12.8719 55.0721 13.7338 55.2404 14.1647 55.8993C20.0029 64.8443 29.8167 70.1861 40.4229 70.1861C47.9014 70.1861 55.1575 67.4942 60.8289 62.587C66.4448 57.736 70.1979 51.0483 71.4073 43.7436C71.5324 42.9865 72.2552 42.4678 73.0058 42.594C73.7565 42.7201 74.2708 43.4492 74.1457 44.2063C72.8251 52.1699 68.7384 59.4465 62.636 64.7181C56.4363 70.0599 48.5547 72.9902 40.409 72.9902Z" fill="#780B00"/>
<path d="M10.1335 27.1435C9.95281 27.1435 9.7721 27.1154 9.59139 27.0313C8.88246 26.7369 8.54885 25.9097 8.84076 25.1947C11.4124 18.9976 15.6937 13.712 21.2262 9.92645C26.8976 6.0428 33.5282 3.99582 40.409 3.99582C48.8605 3.99582 56.9924 7.13639 63.2754 12.8287C63.8453 13.3474 63.887 14.2307 63.3727 14.8055C62.8584 15.3804 61.9827 15.4224 61.4127 14.9037C55.644 9.67408 48.1794 6.78588 40.409 6.78588C34.0981 6.78588 27.9958 8.66461 22.7969 12.2258C17.7093 15.7028 13.7755 20.5539 11.4124 26.2462C11.19 26.821 10.6756 27.1435 10.1335 27.1435Z" fill="#780B00"/>
<path d="M21.0872 30.9991C20.7536 30.5505 20.2948 30.1719 19.7249 29.8635C19.1411 29.555 18.4739 29.3026 17.6954 29.1204C16.917 28.9381 16.083 28.8119 15.1794 28.7699C14.2759 28.7138 13.3446 28.7418 12.3715 28.826C11.3985 28.9101 10.4254 29.0643 9.46629 29.2886C8.63226 29.4849 7.82602 29.7233 7.04759 30.0177C6.26916 30.3121 5.51853 30.6626 4.8235 31.0692C4.12847 31.4758 3.47514 31.9245 2.87742 32.4292C2.2936 32.9339 1.77927 33.5088 1.34836 34.1257C0.917438 34.7566 0.583824 35.4296 0.361415 36.1586C0.111205 36.8877 0 37.6728 0 38.5281C0 39.4113 0.194608 39.8039 0.569924 39.7058C0.847935 39.6357 1.19545 39.2992 1.62637 38.6823C2.05729 38.0654 2.54381 37.1821 3.09983 36.0184C3.36394 35.5838 3.76706 35.1491 4.29528 34.7285C4.8235 34.3079 5.42122 33.9294 6.08845 33.5789C6.76958 33.2284 7.49241 32.9199 8.28474 32.6535C8.85467 32.4572 9.6609 32.2329 10.6895 31.9946C11.329 31.8403 11.9545 31.7282 12.58 31.644C13.2055 31.5599 13.8033 31.5038 14.3593 31.4898C14.9292 31.4758 15.4435 31.5038 15.9301 31.5599C16.4027 31.616 16.8197 31.7282 17.1811 31.8824C17.5425 32.0366 17.8066 32.2329 18.0151 32.4713C18.2098 32.7236 18.321 33.018 18.321 33.3686C18.321 33.9013 18.1959 34.4341 17.9595 34.9529C17.7093 35.4716 17.3479 35.9623 16.8892 36.425C16.4305 36.8877 15.8606 37.2943 15.2072 37.6448C14.5539 38.0093 13.8033 38.2757 12.9831 38.472C12.6356 38.5561 12.302 38.6122 12.0101 38.6542C11.7043 38.6963 11.3707 38.7524 11.0093 38.8365C10.7312 38.9066 10.5227 38.9767 10.3559 39.0468C10.203 39.1309 10.0779 39.2151 9.99451 39.3272C9.91111 39.4394 9.86941 39.5516 9.84161 39.6918C9.82771 39.832 9.81381 39.9862 9.81381 40.1684C9.81381 40.561 9.91111 40.8414 10.1057 41.0517C10.3003 41.248 10.5366 41.4022 10.8425 41.4864C11.1483 41.5845 11.4958 41.6406 11.885 41.6546C12.2742 41.6686 12.6773 41.6827 13.0804 41.6967C13.4836 41.7107 13.8867 41.7387 14.2759 41.7948C14.6651 41.8369 15.0126 41.949 15.3184 42.1033C15.6242 42.2575 15.8745 42.4958 16.0552 42.7903C16.2498 43.0847 16.3471 43.4913 16.3471 44.01C16.3471 44.9634 16.1942 45.7906 15.8884 46.4776C15.5686 47.1646 15.1516 47.7675 14.6234 48.2863C14.0952 48.805 13.4975 49.2396 12.8163 49.5761C12.1352 49.9126 11.4263 50.165 10.7034 50.3473C10.1057 50.4875 9.50799 50.5576 8.91027 50.5716C8.31254 50.5856 7.75652 50.5716 7.2283 50.5155C7.1588 50.4734 7.10319 50.4033 7.07539 50.3052C7.03369 50.207 7.00589 50.0809 6.99199 49.9547C6.97809 49.8285 6.96419 49.7023 6.96419 49.5761C6.96419 49.45 6.96419 49.3518 6.96419 49.2817C6.96419 48.8471 6.96419 48.3844 6.97809 47.8937C6.99199 47.417 7.00589 46.9263 7.01979 46.4356C7.04759 45.9449 7.06149 45.4401 7.08929 44.9354C7.11709 44.4166 7.1449 43.954 7.1866 43.5333C7.2561 42.7903 7.3395 42.0191 7.45071 41.22C7.56191 40.4208 7.68702 39.7619 7.82602 39.201C7.96503 38.6542 8.17354 38.0093 8.45155 37.2662C8.72956 36.5372 9.04928 35.8502 9.43849 35.2052C9.02147 34.5883 8.49325 34.35 7.86773 34.4902C7.36731 34.6024 6.82518 34.9529 6.22746 35.5137C5.54633 36.7194 5.01811 37.9252 4.64279 39.1169C4.26748 40.3087 3.98947 41.6827 3.76706 43.2389C3.55855 44.7952 3.41954 46.3374 3.35004 47.8797C3.28054 49.4219 3.26664 50.9221 3.26664 52.3802C3.26664 52.6746 3.36394 52.8429 3.54465 52.913C3.72535 52.9831 3.94776 53.0252 4.18407 53.0252C4.7262 53.0812 5.29612 53.1233 5.90774 53.1373C6.51937 53.1513 7.131 53.1513 7.75652 53.1233C8.38205 53.0953 9.00757 53.0392 9.6192 52.9691C10.2308 52.899 10.8146 52.7868 11.3707 52.6606C12.2464 52.4503 13.0526 52.1699 13.7894 51.8054C14.5261 51.4408 15.1794 51.0202 15.7633 50.5576C16.3471 50.0949 16.8475 49.5761 17.2784 49.0293C17.7093 48.4825 18.0708 47.9077 18.3627 47.3329C18.6546 46.758 18.8631 46.1692 19.0021 45.5803C19.1411 44.9915 19.2106 44.4306 19.2106 43.8839C19.2106 43.1969 19.0994 42.5519 18.877 41.949C18.6546 41.3321 18.3349 40.8414 17.9039 40.4629C17.473 40.0843 16.9448 39.832 16.3054 39.7058C15.6659 39.5796 14.9292 39.6076 14.0952 39.8039C15.4296 39.4674 16.5695 39.0188 17.5147 38.458C18.46 37.8971 19.2384 37.2802 19.85 36.6073C20.4616 35.9343 20.9065 35.2473 21.1845 34.5323C21.4625 33.8172 21.6015 33.1162 21.6015 32.4432C21.5737 31.9525 21.4069 31.4478 21.0872 30.9991Z" fill="#AE4536"/>
<path d="M24.3955 33.4246C24.7569 33.705 25.3129 33.7611 26.0636 33.5788C26.4945 33.4807 26.8698 33.3265 27.1756 33.1162C27.4814 32.9059 27.7455 32.6675 27.9401 32.4011C28.1487 32.1347 28.2877 31.8543 28.385 31.5459C28.4823 31.2374 28.524 30.943 28.524 30.6486C28.524 30.3261 28.4684 30.0597 28.3433 29.8494C28.2321 29.6391 28.0653 29.4849 27.8706 29.3867C27.676 29.2886 27.4397 29.2325 27.1756 29.2325C26.9115 29.2185 26.6335 29.2606 26.3277 29.3307C25.8551 29.4428 25.4519 29.6111 25.1322 29.8354C24.8125 30.0597 24.5623 30.3121 24.3677 30.5785C24.1731 30.8449 24.0341 31.1112 23.9507 31.3916C23.8673 31.6721 23.8256 31.9104 23.8256 32.1067C23.8534 32.6955 24.0341 33.1442 24.3955 33.4246Z" fill="#AE4536"/>
<path d="M79.1638 29.6531C78.8302 30.0597 78.4271 30.4943 77.9544 30.957C77.4818 31.4337 76.9675 31.8824 76.4393 32.317C75.8972 32.7516 75.355 33.1302 74.7851 33.4667C74.2152 33.8032 73.687 34.0275 73.1726 34.1537C73.0058 34.1957 72.8529 34.2097 72.7139 34.2097C72.5749 34.2097 72.4359 34.1817 72.3108 34.1256C72.1857 34.0695 72.0606 33.9854 71.9355 33.8592C71.8104 33.733 71.6853 33.5788 71.5602 33.3685C72.2969 32.99 72.9919 32.5413 73.6314 32.0366C74.2708 31.5178 74.8129 30.9851 75.2716 30.4102C75.7304 29.8354 76.1335 29.1764 76.4671 28.4474C76.8146 27.7183 76.9814 27.0874 76.9814 26.5546C76.9814 26.0639 76.8841 25.6293 76.7173 25.2788C76.5505 24.9142 76.3003 24.6338 75.9945 24.4235C75.6887 24.2132 75.3272 24.073 74.9241 24.0169C74.5071 23.9608 74.0623 23.9749 73.5897 24.087C73.0058 24.2272 72.4776 24.4515 71.9911 24.774C71.5185 25.0965 71.0876 25.475 70.6983 25.9237C70.3091 26.3723 69.9755 26.8631 69.6975 27.3958C69.4056 27.9286 69.1693 28.4754 68.9886 29.0362C68.8079 29.597 68.6133 30.228 68.4464 30.929C68.2657 31.63 68.1823 32.2329 68.1962 32.7096C68.1962 33.0601 68.224 33.3966 68.2657 33.733C68.2935 33.9153 68.3213 34.0836 68.363 34.2518C68.3213 34.0836 68.2935 33.9153 68.2657 33.733C68.1684 33.8312 68.0572 33.9153 67.9599 34.0135C67.7236 34.2238 67.4873 34.4341 67.2232 34.6444C66.973 34.8547 66.7228 35.051 66.4865 35.2192C66.2502 35.3875 66.0138 35.5417 65.8053 35.6538C65.5968 35.78 65.4022 35.8501 65.2354 35.8922C65.1659 35.9062 65.0964 35.8782 65.013 35.794C64.9296 35.7099 64.8601 35.5978 64.7906 35.4435C64.7211 35.2893 64.6655 35.107 64.6099 34.9108C64.5682 34.7145 64.5404 34.4901 64.5404 34.2658V34.0836C64.5682 33.9013 64.596 33.719 64.6377 33.5227C64.6794 33.3265 64.7211 33.1442 64.7628 32.9759C64.8045 32.8077 64.8462 32.6395 64.8879 32.4852C64.9296 32.331 64.9852 32.2048 65.0269 32.1067C65.4161 31.2234 65.8331 30.3261 66.3058 29.3867C66.7645 28.4474 67.2232 27.508 67.6819 26.5546C68.1406 25.6012 68.5716 24.6338 69.0025 23.6664C69.4195 22.699 69.7948 21.7596 70.1145 20.8203C70.4342 19.8809 70.6844 18.9696 70.8651 18.0723C71.0459 17.175 71.1432 16.3197 71.1293 15.4925C71.1293 15.156 71.1015 14.8476 71.032 14.5391C70.9764 14.2307 70.8652 13.9783 70.7122 13.754C70.5593 13.5297 70.3647 13.3754 70.1006 13.2913C69.8365 13.1932 69.5168 13.1932 69.1276 13.2913C68.5855 13.4175 68.0572 13.6979 67.529 14.1325C67.0008 14.5672 66.5004 15.128 66.0277 15.7869C65.5551 16.4599 65.0964 17.217 64.6516 18.0583C64.2207 18.8995 63.8176 19.7968 63.4422 20.7502C63.0669 21.6895 62.7055 22.9233 62.3441 24.4235C61.9827 25.9237 61.802 26.6528 61.802 26.6808C61.802 26.7229 61.6908 27.4239 61.4406 28.896C61.2042 30.3822 61.093 31.5459 61.093 32.3871C61.093 32.8918 61.1208 33.3825 61.1625 33.8592C60.9401 34.1817 60.6899 34.5182 60.4119 34.8687C59.9671 35.4435 59.4945 35.9763 58.9941 36.4951C58.4936 36.9998 58.0071 37.4344 57.5067 37.813C57.0202 38.1915 56.5615 38.4159 56.1583 38.514C55.7413 38.6121 55.4077 38.5981 55.1297 38.4719C54.8656 38.3458 54.6432 38.1635 54.4764 37.9251C54.3096 37.6868 54.1984 37.3924 54.1428 37.0699C54.0872 36.7474 54.0593 36.425 54.0593 36.1165C54.0593 35.9062 54.0593 35.6538 54.0732 35.3314C54.0872 35.0229 54.1289 34.6864 54.1984 34.3359C54.2679 33.9854 54.393 33.5368 54.5598 32.99C54.7266 32.4572 54.8934 32.0226 55.0741 31.7141C55.2409 31.4057 55.4494 31.1253 55.6996 30.9009C55.9498 30.6766 56.2417 30.5224 56.5893 30.4383C56.7283 30.4102 56.8256 30.4523 56.8673 30.5785C56.909 30.7046 56.9368 30.8729 56.9368 31.0832C56.9507 31.3215 56.9507 31.4758 56.9229 31.5599C56.7978 32.0927 56.7283 32.4292 56.7005 32.5694C56.631 32.8498 56.6866 33.1302 56.909 33.4246C57.0341 33.6069 57.3121 33.6489 57.743 33.5508C58.0349 33.4807 58.2851 33.3545 58.5075 33.1582C58.7299 32.9619 58.9663 32.6535 59.2026 32.2048C59.4389 31.7702 59.6057 31.3916 59.6752 31.0832C59.7586 30.7747 59.8003 30.4803 59.8003 30.1859C59.8003 29.7653 59.703 29.3867 59.5223 29.0502C59.3416 28.7278 59.0914 28.4614 58.7855 28.2651C58.4658 28.0688 58.0905 27.9426 57.6457 27.9006C57.2009 27.8585 56.7283 27.8865 56.2139 28.0127C55.644 28.1529 55.1158 28.3773 54.6293 28.6997C54.1567 29.0222 53.7118 29.4148 53.3226 29.8634C52.9334 30.3121 52.5998 30.8168 52.3079 31.3636C52.016 31.9104 51.7658 32.4712 51.5711 33.046C51.3765 33.6209 51.1958 34.2798 51.029 35.0229C50.8622 35.766 50.7788 36.3829 50.7788 36.8876C50.7788 37.0839 50.7927 37.2662 50.8066 37.4485C50.8483 37.9392 50.9456 38.4018 51.0985 38.8365C50.9456 38.4018 50.8483 37.9392 50.8066 37.4485C50.5842 37.799 50.3757 38.1074 50.1811 38.4018C49.7363 39.0608 49.3193 39.6076 48.9578 40.0562C48.5964 40.5049 48.2628 40.8694 47.957 41.1639C47.6651 41.4443 47.3732 41.6966 47.123 41.9069C47.3315 40.3787 47.5539 38.9346 47.7624 37.6027C47.8597 37.0419 47.9709 36.2848 48.1238 35.3594C48.2767 34.4341 48.3879 33.705 48.4713 33.1863C48.5547 32.6675 48.6242 32.2048 48.6937 31.8123C48.7632 31.4057 48.8049 31.0832 48.8466 30.8448C48.8744 30.7327 48.8883 30.6345 48.8883 30.5644C48.8883 30.3121 48.791 30.1438 48.6103 30.0737C48.4296 30.0036 48.2072 29.9896 47.9431 30.0597C47.7207 30.1158 47.4844 30.1999 47.2342 30.3401C46.984 30.4803 46.7476 30.6486 46.5252 30.8589C46.2889 31.0692 46.0943 31.3075 45.9275 31.5739C45.7468 31.8543 45.6356 32.1347 45.58 32.4432L44.5792 37.5466C44.5514 37.841 44.4819 38.2056 44.3567 38.6542C44.2455 39.1029 44.0926 39.5375 43.9119 39.9721C43.7312 40.4068 43.5088 40.7993 43.2586 41.1358C43.0084 41.4723 42.7165 41.6826 42.4107 41.7527C42.2161 41.7948 42.0493 41.7808 41.9241 41.7106C41.799 41.6405 41.6878 41.5284 41.6183 41.3882C41.5349 41.248 41.4793 41.0657 41.4515 40.8694C41.4237 40.6731 41.4098 40.4628 41.3959 40.2385C41.3959 39.8179 41.4376 39.3272 41.5349 38.7664C41.6322 38.2056 41.7712 37.4485 41.938 36.4951C42.1049 35.5417 42.2439 34.7706 42.3412 34.1957C42.4385 33.6209 42.5636 33.1162 42.7165 32.6815C42.7721 32.5413 42.7999 32.4151 42.8138 32.2889C42.8277 32.1768 42.8416 32.0646 42.8416 31.9665C42.8416 31.644 42.7304 31.4337 42.5219 31.3356C42.3134 31.2374 42.0492 31.2094 41.7573 31.2795C41.4098 31.3636 41.0484 31.5459 40.687 31.8403C40.3256 32.1347 40.0476 32.4993 39.853 32.9339C39.5889 33.5368 39.3664 34.1396 39.1579 34.7145C38.9494 35.2893 38.7826 36.0604 38.6436 37.0278C38.5046 37.9812 38.3795 38.7944 38.2822 39.4393C38.2683 39.4954 38.2683 39.5375 38.2544 39.5936C38.1293 39.7618 37.9903 39.9441 37.8374 40.1263C37.3926 40.7012 36.9199 41.234 36.4195 41.7527C35.9191 42.2574 35.4326 42.6921 34.9322 43.0706C34.4456 43.4492 33.9869 43.6735 33.5838 43.7717C33.1668 43.8698 32.8332 43.8558 32.5552 43.7296C32.291 43.6034 32.0686 43.4211 31.9018 43.1828C31.735 42.9444 31.6238 42.65 31.5682 42.3275C31.5126 42.0051 31.4848 41.6826 31.4848 41.3742C31.4848 41.1639 31.4848 40.9115 31.4987 40.589C31.5126 40.2806 31.5543 39.9441 31.6238 39.5936C31.6933 39.2431 31.8184 38.7944 31.9852 38.2476C32.152 37.7148 32.3188 37.2802 32.4996 36.9718C32.6664 36.6633 32.8749 36.3829 33.1251 36.1586C33.3753 35.9342 33.6672 35.78 34.0147 35.6959C34.1537 35.6679 34.251 35.7099 34.2927 35.8361C34.3344 35.9623 34.3622 36.1305 34.3622 36.3408C34.3761 36.5792 34.3761 36.7334 34.3483 36.8175C34.2232 37.3503 34.1537 37.6868 34.1259 37.827C34.0564 38.1074 34.112 38.3878 34.3344 38.6822C34.4595 38.8645 34.7375 38.9066 35.1685 38.8084C35.4604 38.7383 35.7106 38.6121 35.933 38.4159C36.1554 38.2196 36.3917 37.9111 36.628 37.4625C36.8643 37.0278 37.0311 36.6493 37.1006 36.3408C37.184 36.0324 37.2257 35.738 37.2257 35.4435C37.2257 35.0229 37.1284 34.6444 36.9477 34.3079C36.767 33.9854 36.5168 33.719 36.211 33.5227C35.8913 33.3265 35.516 33.2003 35.0712 33.1582C34.6263 33.1161 34.1537 33.1442 33.6394 33.2704C33.0695 33.4106 32.5413 33.6349 32.0547 33.9574C31.5821 34.2798 31.1373 34.6724 30.7481 35.1211C30.3589 35.5697 30.0252 36.0745 29.7333 36.6213C29.4414 37.168 29.1912 37.7289 28.9966 38.3037C28.802 38.8785 28.6213 39.5375 28.4545 40.2806C28.2877 41.0236 28.2043 41.6405 28.2043 42.1453C28.2043 42.5379 28.246 42.9164 28.3016 43.2669C28.3155 43.309 28.3155 43.3651 28.3294 43.4071C28.3155 43.3651 28.3155 43.309 28.3016 43.2669C28.0653 43.5333 27.8151 43.7997 27.5648 44.0521C27.1895 44.4446 26.8003 44.7951 26.425 45.1036C26.0497 45.412 25.7161 45.5943 25.4103 45.6644C25.1461 45.7205 24.9654 45.6504 24.882 45.4401C24.7986 45.2298 24.7569 44.9353 24.743 44.5428C24.743 44.1502 24.7986 43.6875 24.9237 43.1688C25.0488 42.65 25.1461 42.1313 25.2157 41.6265C25.2991 41.1078 25.4381 40.4769 25.6605 39.7338C25.869 38.9767 26.0358 38.3738 26.147 37.8971C26.2582 37.4204 26.3555 36.9998 26.4389 36.6353C26.5223 36.2707 26.564 35.9903 26.564 35.794C26.564 35.5697 26.4945 35.4015 26.3694 35.3033C26.2443 35.1912 26.008 35.1912 25.6466 35.2753C25.452 35.3174 25.2435 35.4015 24.9932 35.4996C24.7569 35.5978 24.5206 35.738 24.2982 35.8782C24.0758 36.0324 23.8812 36.2006 23.7005 36.4109C23.5059 36.6353 23.3947 36.8596 23.353 37.0839C23.2835 37.4204 23.0889 38.1355 22.7691 39.2431C22.4355 40.603 22.1992 41.4723 22.088 41.8649C22.0185 42.0612 21.8656 42.9444 21.6293 44.5147C21.5181 45.2718 21.4625 45.9308 21.4625 46.4636C21.4625 46.8561 21.5042 47.2066 21.5876 47.5151C21.671 47.8235 21.81 48.0619 21.9907 48.2442C22.1853 48.4264 22.4216 48.5386 22.7274 48.5947C23.0333 48.6507 23.4086 48.6227 23.8534 48.5246C24.3538 48.4124 24.8681 48.2021 25.4242 47.8796C25.9802 47.5712 26.5084 47.2207 27.0366 46.8141C27.5648 46.4215 28.0514 46.0009 28.5101 45.5663C28.6908 45.398 28.8576 45.2298 29.0105 45.0755C28.9549 45.0054 28.9132 44.9213 28.8576 44.8512C28.8993 44.9353 28.9549 45.0054 29.0105 45.0755C29.1356 45.2578 29.2746 45.4261 29.4275 45.5803C29.8306 45.9869 30.3311 46.2533 30.9427 46.4215C31.5404 46.5757 32.2354 46.5617 33.0278 46.3794C33.4726 46.2813 33.9174 46.099 34.3622 45.8607C34.7931 45.6083 35.2241 45.3279 35.6272 45.0054C36.0303 44.683 36.4195 44.3325 36.7809 43.9539C37.1562 43.5754 37.4899 43.1828 37.8096 42.8042C37.9347 42.65 38.0598 42.4958 38.1849 42.3416C38.2266 42.5939 38.2961 42.8183 38.3934 43.0286C38.5741 43.4492 38.8104 43.7716 39.1162 44.024C39.422 44.2764 39.7557 44.4306 40.1449 44.5147C40.5341 44.5989 40.9372 44.5848 41.3403 44.4867C41.8129 44.3745 42.2995 44.1362 42.786 43.7717C43.2864 43.4071 43.759 42.9585 44.2177 42.4397L43.9397 44.0801C43.4115 44.683 42.9389 45.2438 42.5636 45.7485C42.1744 46.2533 41.6878 46.9262 41.0901 47.7394C40.7982 48.132 40.5063 48.5666 40.2422 49.0433C39.9642 49.52 39.7696 49.8845 39.6445 50.1369C39.5193 50.3893 39.2969 50.8379 38.9911 51.4829C38.4351 52.6325 38.1988 53.67 38.2683 54.5674C38.31 55.044 38.4212 55.4366 38.6158 55.7591C38.8104 56.0675 39.0606 56.2919 39.3803 56.4321C39.6862 56.5723 40.0337 56.6424 40.3951 56.6564C40.7704 56.6704 41.1735 56.6283 41.6044 56.5302C42.1466 56.404 42.6331 56.2077 43.0779 55.9273C43.5227 55.6469 43.9119 55.3245 44.2316 54.9739C44.5514 54.6234 44.8433 54.2028 45.0935 53.7542C45.3576 53.2915 45.5661 52.8428 45.719 52.4082C45.8719 51.9596 46.0109 51.4969 46.136 50.9781C46.2472 50.4734 46.3306 50.0247 46.3723 49.6322C46.414 49.2396 46.4696 48.833 46.5113 48.4124C46.5252 48.2301 46.553 47.9778 46.5947 47.6553C46.7059 46.5056 46.7894 45.7205 46.8728 45.2859C46.9562 44.8512 47.1091 44.5287 47.3454 44.3184C48.3045 43.4492 48.8605 42.9164 49.0273 42.7341C49.5834 42.1453 49.9031 41.8228 49.9587 41.7667C50.1394 41.5845 50.4452 41.248 50.8761 40.7573C51.1124 40.4628 51.3487 40.1824 51.5572 39.888C51.6824 40.0703 51.8214 40.2245 51.9743 40.3787C52.3774 40.7853 52.8778 41.0517 53.4894 41.2199C54.0872 41.3742 54.7822 41.3601 55.5745 41.1779C56.0193 41.0797 56.4641 40.8975 56.909 40.6591C57.3538 40.4068 57.7708 40.1263 58.1739 39.8039C58.577 39.4814 58.9663 39.1309 59.3277 38.7523C59.703 38.3738 60.0366 37.9812 60.3563 37.6027C60.7594 37.112 61.1347 36.6072 61.5101 36.0604C61.6491 36.5792 61.8159 37.0419 62.0244 37.4485C62.3163 38.0653 62.6638 38.528 63.0669 38.8365C63.47 39.1449 63.8871 39.2571 64.3458 39.1449C64.6377 39.0748 64.9713 38.9627 65.3049 38.8084C65.6524 38.6542 65.9999 38.4579 66.3614 38.2476C66.7228 38.0373 67.0842 37.799 67.4317 37.5466C67.7931 37.2942 68.1267 37.0419 68.4604 36.7895C68.7106 36.5932 68.9608 36.3969 69.2249 36.1866C69.0998 36.0464 68.9747 35.8782 68.8774 35.7099C68.9886 35.8782 69.0998 36.0324 69.2249 36.1866C69.2666 36.2287 69.3083 36.2848 69.35 36.3268C69.7531 36.7474 70.2535 37.0278 70.8512 37.1961C71.449 37.3503 72.144 37.3503 72.9502 37.154C73.4646 37.0278 73.965 36.8596 74.4654 36.6213C74.9658 36.3829 75.4384 36.1165 75.9111 35.8081C76.3698 35.4996 76.8146 35.1631 77.2316 34.8126C77.6486 34.4481 78.0517 34.0976 78.4132 33.7471C79.2472 32.9199 80.0534 32.0226 80.7902 31.0271L79.1638 29.6531ZM43.9258 48.0759C43.8702 48.5246 43.8285 48.9031 43.8007 49.2256C43.759 49.548 43.7173 49.8425 43.6339 50.1089C43.4949 50.6136 43.3837 51.0062 43.3003 51.3146C43.2169 51.6231 43.1057 51.9315 42.9945 52.24C42.8833 52.5624 42.7721 52.8008 42.6748 52.9971C42.5775 53.1793 42.4524 53.3616 42.3134 53.5298C42.1744 53.6981 42.0354 53.8243 41.8685 53.9084C41.7017 53.9925 41.521 54.0626 41.3125 54.1187C40.7565 54.2449 40.6036 53.8663 40.8816 52.969C41.2152 51.9035 41.6739 50.8239 42.2439 49.7303C42.8138 48.6367 43.4115 47.8095 43.9953 47.2347C44.0092 47.3468 43.9675 47.6273 43.9258 48.0759ZM64.318 28.7979C64.3597 27.9006 64.4848 26.835 64.7072 25.6012C64.9296 24.3674 65.0408 23.7926 65.0408 23.7505C65.0547 23.7225 65.2215 23.0776 65.5968 21.7176C65.9582 20.3576 66.278 19.3762 66.556 18.7453C66.8201 18.1143 67.0842 17.6096 67.3622 17.217C67.6263 16.8245 67.8765 16.6001 68.1128 16.544C68.1823 16.53 68.2101 16.6142 68.224 16.7824C68.2379 16.9647 68.2379 17.175 68.2518 17.4273C68.1823 18.2405 68.0016 19.1378 67.7236 20.1333C67.4456 21.1287 67.112 22.1242 66.7367 23.1477C66.3614 24.1711 65.9582 25.1666 65.5273 26.134C65.1103 27.1154 64.7072 27.9987 64.318 28.7979ZM68.4743 34.7285C68.4604 34.6724 68.4325 34.6023 68.4186 34.5462C68.4325 34.6023 68.4464 34.6724 68.4743 34.7285C68.516 34.8687 68.5716 34.9949 68.6272 35.1351C68.5716 35.0089 68.516 34.8687 68.4743 34.7285ZM71.2544 30.6345C71.2683 30.3682 71.3517 30.0176 71.4907 29.569C71.6297 29.1344 71.7548 28.7558 71.8521 28.4614C71.9633 28.167 72.1023 27.8865 72.2691 27.6202C72.4498 27.3678 72.6583 27.1294 72.9224 26.9332C73.1865 26.7369 73.4924 26.5967 73.8677 26.5125C74.0762 26.4705 74.243 26.5406 74.3959 26.7649C74.5349 26.9752 74.6044 27.2696 74.6183 27.6622C74.6183 27.9286 74.4793 28.3072 74.1735 28.7979C73.8816 29.2886 73.5758 29.6812 73.2561 30.0036C72.9502 30.3261 72.6027 30.6065 72.2413 30.8448C71.8799 31.0832 71.5463 31.2374 71.2405 31.3215C71.2266 31.1253 71.2405 30.9009 71.2544 30.6345Z" fill="#AE4536"/>
<path d="M40.409 77C40.0198 77 39.7139 76.6915 39.7139 76.299C39.7139 75.9064 40.0198 75.598 40.409 75.598C49.3053 75.598 57.882 72.3592 64.5821 66.4707C71.2126 60.6382 75.5496 52.6185 76.8146 43.8838C76.8702 43.5053 77.2177 43.2389 77.6069 43.295C77.9822 43.351 78.2463 43.7016 78.1907 44.0941C76.8841 53.1653 72.3803 61.4794 65.4995 67.5362C58.5492 73.6351 49.639 77 40.409 77Z" fill="#B2AFA0"/>
<path d="M5.11543 26.4425C5.03203 26.4425 4.96252 26.4284 4.87912 26.4004C4.5177 26.2742 4.3231 25.8676 4.4621 25.5031C7.08931 18.1143 11.8433 11.7771 18.2098 7.17844C24.7152 2.48161 32.3884 0 40.409 0C40.7982 0 41.104 0.308449 41.104 0.70102C41.104 1.09359 40.7982 1.40204 40.409 1.40204C32.6803 1.40204 25.2852 3.79953 19.016 8.31409C12.8859 12.7445 8.29866 18.8574 5.76876 25.9798C5.67145 26.2742 5.40734 26.4425 5.11543 26.4425Z" fill="#B2AFA0"/>
<path d="M52.85 47.7815C52.6832 47.7254 52.4608 47.6833 52.1828 47.6693C51.9187 47.6553 51.7379 47.6273 51.6267 47.5572C51.5155 47.5011 51.4599 47.3889 51.4599 47.2207C51.4599 47.0244 51.5155 46.8702 51.6406 46.7299C51.7658 46.5897 51.9326 46.4916 52.1411 46.4495C52.4886 46.3654 52.8222 46.4355 53.1141 46.6739L53.3087 46.085C53.1697 45.9588 53.0029 45.8747 52.7944 45.8467C52.5859 45.8186 52.3635 45.8186 52.1411 45.8747C51.8909 45.9308 51.6684 46.043 51.4738 46.1972C51.2792 46.3514 51.1402 46.5337 51.029 46.744C50.9317 46.9543 50.8761 47.1926 50.8761 47.431C50.8761 47.7675 50.9734 48.0058 51.168 48.146C51.3626 48.2862 51.6545 48.3563 52.0716 48.3703C52.3357 48.3844 52.5303 48.4124 52.6415 48.4685C52.7527 48.5246 52.8222 48.6367 52.8222 48.7909C52.8222 48.9732 52.7666 49.1274 52.6415 49.2536C52.5164 49.3798 52.3496 49.4779 52.1133 49.534C51.9048 49.5761 51.724 49.5901 51.5433 49.5621C51.3765 49.534 51.1958 49.4639 51.0429 49.3377L50.8483 49.9266C51.0012 50.0528 51.1958 50.1229 51.4043 50.1649C51.6267 50.207 51.8631 50.193 52.1133 50.1229C52.3774 50.0668 52.6137 49.9546 52.8083 49.8144C53.0029 49.6742 53.1558 49.492 53.2531 49.2817C53.3504 49.0714 53.406 48.847 53.406 48.5947C53.406 48.3703 53.3504 48.1881 53.267 48.0619C53.1419 47.9357 53.0168 47.8376 52.85 47.7815Z" fill="#AE4536"/>
<path d="M57.1036 44.7531L57.1175 46.4916L55.4355 46.8842L55.4216 45.1457L54.8378 45.2718L54.8656 49.4219L55.4494 49.2957L55.4355 47.4871L57.1175 47.0945L57.1314 48.9031L57.7152 48.7629L57.6874 44.6129L57.1036 44.7531Z" fill="#AE4536"/>
<path d="M61.6074 43.9119C61.3711 43.7997 61.093 43.7716 60.7733 43.8558C60.4536 43.9259 60.1756 44.0801 59.9393 44.3044C59.703 44.5287 59.5223 44.8232 59.3972 45.1737C59.2721 45.5242 59.2165 45.9168 59.2165 46.3514C59.2165 46.786 59.286 47.1506 59.4111 47.445C59.5362 47.7394 59.7169 47.9357 59.9532 48.0619C60.1895 48.174 60.4675 48.2021 60.7872 48.132C61.1069 48.0619 61.385 47.9077 61.6213 47.6833C61.8576 47.459 62.0383 47.1646 62.1495 46.8141C62.2746 46.4636 62.3302 46.071 62.3302 45.6364C62.3302 45.2017 62.2607 44.8372 62.1356 44.5568C62.0244 44.2203 61.8437 44.024 61.6074 43.9119ZM61.5101 46.9262C61.3433 47.2347 61.1069 47.4169 60.8011 47.4871C60.4953 47.5572 60.259 47.487 60.0922 47.2487C59.9254 47.0244 59.8281 46.6598 59.8281 46.1691C59.8281 45.6784 59.9115 45.2718 60.0783 44.9774C60.2451 44.683 60.4814 44.4867 60.7872 44.4166C61.093 44.3465 61.3293 44.4166 61.4962 44.6409C61.663 44.8652 61.7603 45.2157 61.7603 45.7065C61.7603 46.2252 61.6769 46.6318 61.5101 46.9262Z" fill="#AE4536"/>
<path d="M66.1111 42.9725C65.9165 42.8043 65.6385 42.7622 65.291 42.8463L63.8732 43.1828L63.901 47.3328L64.4987 47.1926L64.4848 45.4681L65.3188 45.2718C65.6663 45.1877 65.9443 45.0195 66.1389 44.7531C66.3335 44.4867 66.4308 44.1642 66.4308 43.7997C66.4169 43.4212 66.3057 43.1407 66.1111 42.9725ZM65.6941 44.4306C65.5829 44.5568 65.43 44.6549 65.2215 44.697L64.457 44.8793L64.4431 43.6315L65.2076 43.4492C65.4161 43.4071 65.569 43.4212 65.6802 43.5053C65.7914 43.5894 65.8331 43.7296 65.8331 43.9399C65.8609 44.1222 65.8053 44.2904 65.6941 44.4306Z" fill="#AE4536"/>
</svg>
