<svg width="22" height="22" viewBox="0 0 22 22" fill="none" xmlns="http://www.w3.org/2000/svg">
<path d="M2.77856 7.82031L3.80625 20.2414C3.89751 21.2441 4.72522 22 5.73168 22H16.2683C17.2747 22 18.1024 21.2441 18.1943 20.2357L19.2214 7.82031H2.77856ZM7.77729 17.4883C7.77729 17.8445 7.48901 18.1328 7.13276 18.1328C6.77651 18.1328 6.48823 17.8445 6.48823 17.4883V9.75391C6.48823 9.39765 6.77651 9.10938 7.13276 9.10938C7.48901 9.10938 7.77729 9.39765 7.77729 9.75391V17.4883ZM11.6445 17.4883C11.6445 17.8445 11.3562 18.1328 10.9999 18.1328C10.6437 18.1328 10.3554 17.8445 10.3554 17.4883V9.75391C10.3554 9.39765 10.6437 9.10938 10.9999 9.10938C11.3562 9.10938 11.6445 9.39765 11.6445 9.75391V17.4883ZM15.5117 17.4883C15.5117 17.8445 15.2234 18.1328 14.8671 18.1328C14.5109 18.1328 14.2226 17.8445 14.2226 17.4883V9.75391C14.2226 9.39765 14.5109 9.10938 14.8671 9.10938C15.2234 9.10938 15.5117 9.39765 15.5117 9.75391V17.4883Z" fill="#827B7B"/>
<path d="M18.7344 2.57812H14.2227V1.93359C14.2227 0.867367 13.3553 0 12.2891 0H9.71094C8.64471 0 7.77734 0.867367 7.77734 1.93359V2.57812H3.26562C2.1994 2.57812 1.33203 3.44549 1.33203 4.51172V5.80078C1.33203 6.15704 1.62031 6.44531 1.97656 6.44531C2.7402 6.44531 19.6756 6.44531 20.0234 6.44531C20.3797 6.44531 20.668 6.15704 20.668 5.80078V4.51172C20.668 3.44549 19.8006 2.57812 18.7344 2.57812ZM12.9336 2.57812H9.06641V1.93359C9.06641 1.57798 9.35533 1.28906 9.71094 1.28906H12.2891C12.6447 1.28906 12.9336 1.57798 12.9336 1.93359V2.57812Z" fill="#827B7B"/>
</svg>
