<svg width="16" height="17" viewBox="0 0 16 17" fill="none" xmlns="http://www.w3.org/2000/svg">
<path d="M11.1468 10.0878C13.1058 7.20618 12.4506 3.21602 9.68429 1.17585C6.91795 -0.864327 3.08739 -0.182319 1.12882 2.69976C-0.829756 5.58135 -0.175027 9.57103 2.59178 11.6112C4.56626 13.0674 7.17676 13.1795 9.25935 11.8983L13.7844 16.5837C14.273 17.1194 15.0859 17.1409 15.6003 16.6319C16.1146 16.1235 16.1352 15.2767 15.6471 14.7409C15.6316 14.7239 15.6166 14.7083 15.6003 14.6922L11.1468 10.0878ZM6.13406 10.5246C3.94804 10.5251 2.17573 8.68037 2.17432 6.40327C2.17386 4.12618 3.94476 2.28003 6.13125 2.27905C8.31446 2.27808 10.0858 4.11984 10.09 6.39401C10.0938 8.6716 8.32382 10.5207 6.13686 10.5246C6.13593 10.5246 6.13546 10.5246 6.13406 10.5246Z" fill="#827B7B"/>
</svg>
